<?xml version="1.0" encoding="UTF-8"?>
<svg version="1.1" xmlns="http://www.w3.org/2000/svg" width="361" height="149" viewBox="0 0 361 149">
<path d="M0 0 C2.14621356 1.72308832 3.66233664 3.48092329 4.89453125 5.9453125 C6.22505298 19.33777711 2.08037097 29.56056775 -6.10546875 39.9453125 C-6.56308594 40.56664062 -7.02070312 41.18796875 -7.4921875 41.828125 C-10.00008995 45.10342977 -12.12370052 46.80766443 -16.10546875 47.9453125 C-16.04359375 49.2034375 -15.98171875 50.4615625 -15.91796875 51.7578125 C-15.95502523 63.57882824 -20.99670073 75.48412242 -29.015625 84.1171875 C-34.67882252 89.07116215 -40.48895246 92.39268497 -48.10546875 91.9453125 C-48.13125 92.99589844 -48.15703125 94.04648438 -48.18359375 95.12890625 C-48.46867452 103.12928327 -48.83226147 109.95402085 -53.10546875 116.9453125 C-53.5746875 117.72519531 -54.04390625 118.50507812 -54.52734375 119.30859375 C-61.62356803 130.48331807 -71.36979176 138.1076285 -84.10546875 141.9453125 C-87.33984375 142.19921875 -87.33984375 142.19921875 -90.10546875 141.9453125 C-96.37391708 136.22996256 -98.46596338 126.91685588 -100.796875 119.0625 C-102.41162462 113.82939306 -104.34645469 108.71099097 -106.23046875 103.5703125 C-109.61430314 94.2818724 -112.82732186 84.94879551 -115.8805542 75.54730225 C-116.31665819 74.20459379 -116.75463887 72.86249319 -117.19464111 71.52105713 C-126.1554207 44.1502144 -126.1554207 44.1502144 -120.359375 31.265625 C-115.42004773 22.12556145 -107.99727911 18.00918911 -98.29296875 14.9453125 C-89.81161651 12.65831031 -81.15027134 11.24591958 -72.49487305 9.78320312 C-65.62819024 8.61784297 -58.87120464 7.22935344 -52.0949707 5.62133789 C-47.99762865 4.69479317 -43.8864934 4.04220285 -39.73046875 3.4453125 C-33.8402825 2.56939355 -28.04640465 1.53755872 -22.23046875 0.2578125 C-6.02532862 -3.01825367 -6.02532862 -3.01825367 0 0 Z " fill="#F5718E" transform="translate(127.10546875,5.0546875)"/>
<path d="M0 0 C0.68596539 12.11872187 -3.60545651 23.76961862 -11.125 33.25 C-15.8685341 38.35682446 -22.24870541 42.82450084 -29.33984375 43.15625 C-30.21769531 43.1046875 -31.09554687 43.053125 -32 43 C-32.03867188 44.57587891 -32.03867188 44.57587891 -32.078125 46.18359375 C-32.36320577 54.18397077 -32.72679272 61.00870835 -37 68 C-37.46921875 68.77988281 -37.9384375 69.55976562 -38.421875 70.36328125 C-45.51809928 81.53800557 -55.26432301 89.162316 -68 93 C-71.234375 93.25390625 -71.234375 93.25390625 -74 93 C-78.10958952 89.25302132 -80.00164169 84.0859857 -82 79 C-82.47179687 77.90751953 -82.47179687 77.90751953 -82.953125 76.79296875 C-87.78257338 63.90712239 -84.35477157 47.0627678 -78.875 34.875 C-72.33322103 22.76492107 -62.60246352 15.90903036 -49.72607422 11.7253418 C-42.78003109 9.8771693 -35.55981811 9.09195612 -28.45507812 8.0703125 C-19.92582607 6.75211595 -8.06461112 0 0 0 Z " fill="#8D43D3" transform="translate(111,54)"/>
<path d="M0 0 C1.93359375 1.0859375 1.93359375 1.0859375 4.74609375 3.0859375 C5.40609375 1.7659375 6.06609375 0.4459375 6.74609375 -0.9140625 C9.12109375 -1.0390625 9.12109375 -1.0390625 11.74609375 -0.9140625 C14.34915267 1.68899642 13.99434353 3.50872289 14.02398682 7.05493164 C14.01993835 7.86953857 14.01588989 8.68414551 14.01171875 9.5234375 C14.01458893 10.7772522 14.01458893 10.7772522 14.01751709 12.05639648 C14.01887911 13.82503561 14.01518151 15.59368473 14.00683594 17.36230469 C13.9961365 20.07509744 14.00673051 22.78722794 14.01953125 25.5 C14.01820966 27.2161473 14.01564727 28.93229419 14.01171875 30.6484375 C14.01576721 31.46304443 14.01981567 32.27765137 14.02398682 33.11694336 C13.97601303 38.85601822 13.97601303 38.85601822 11.74609375 41.0859375 C9.30859375 41.3984375 9.30859375 41.3984375 6.74609375 41.0859375 C5.0859375 39.56640625 5.0859375 39.56640625 3.74609375 38.0859375 C3.26140625 38.3746875 2.77671875 38.6634375 2.27734375 38.9609375 C-2.57528222 41.64854573 -6.69670101 43.3352317 -12.25390625 42.0859375 C-18.69323436 39.21879141 -23.60386154 34.69982027 -26.25390625 28.0859375 C-26.94942542 21.06604638 -27.5780988 12.93635181 -23.69921875 6.73828125 C-17.46518994 -0.38873006 -9.1578867 -3.71394365 0 0 Z " fill="#5B2789" transform="translate(295.25390625,62.9140625)"/>
<path d="M0 0 C0.41815743 8.81615256 0.76920942 16.28121798 -4 24 C-4.47050781 24.78117187 -4.94101563 25.56234375 -5.42578125 26.3671875 C-12.51521056 37.54174016 -22.26967615 45.16392908 -35 49 C-38.22265625 49.28125 -38.22265625 49.28125 -41 49 C-44.79895216 45.09837346 -46.15872598 42.35474228 -46.25 37 C-46.07852991 26.88326453 -43.56093515 20.55647367 -36.4453125 13.2578125 C-26.2870172 3.87842803 -13.75973362 0 0 0 Z " fill="#521E7E" transform="translate(78,98)"/>
<path d="M0 0 C4.88207207 2.8334364 8.13374797 7.51749594 10.625 12.5 C11.27594684 21.45051903 11.17469575 28.0106789 5.5 35.1875 C-0.01696936 39.62506231 -5.92603969 42.30518107 -13.10546875 41.953125 C-18.51898253 40.87228576 -22.84420322 37.99051266 -26.75 34.1875 C-30.47009515 28.03503495 -32.06019738 22.69457251 -31.375 15.5 C-29.2328798 8.71661937 -25.42579366 3.75177627 -19.75 -0.4375 C-13.3418671 -2.45487517 -6.2555885 -2.70674503 0 0 Z " fill="#5D298A" transform="translate(199.375,63.5)"/>
<path d="M0 0 C2.75 0.5625 2.75 0.5625 5.03125 3.6953125 C8.67312638 9.81331177 11.27279105 16.44056358 14 23 C14.80990822 24.93411277 15.62176738 26.86737154 16.43621826 28.79957581 C17.16615181 30.53327692 17.89035915 32.26938562 18.61425781 34.00561523 C19.51596048 36.44818632 19.51596048 36.44818632 20.75 37.5625 C21.31714722 36.04112427 21.31714722 36.04112427 21.89575195 34.48901367 C23.30206008 30.72319378 24.71910147 26.96148934 26.1394043 23.20092773 C26.75236357 21.57344873 27.36241503 19.94487145 27.96948242 18.31518555 C28.84310071 15.9714884 29.72713553 13.63195336 30.61328125 11.29296875 C30.88215652 10.56474411 31.1510318 9.83651947 31.42805481 9.08622742 C33.91978944 2.56587566 33.91978944 2.56587566 36.75 0.5625 C39.3125 0.25 39.3125 0.25 41.75 0.5625 C42.41 1.2225 43.07 1.8825 43.75 2.5625 C43.46224731 8.17313451 41.02230855 13.11257292 38.8203125 18.1953125 C38.42931366 19.10957001 38.03831482 20.02382751 37.63546753 20.96578979 C36.80984137 22.89182586 35.98092429 24.81645414 35.14892578 26.73974609 C33.87792002 29.68074333 32.61989543 32.62704814 31.36328125 35.57421875 C30.55806099 37.44824741 29.75209651 39.32195651 28.9453125 41.1953125 C28.57020538 42.07454376 28.19509827 42.95377502 27.80862427 43.85964966 C27.27324539 45.09145462 27.27324539 45.09145462 26.72705078 46.34814453 C26.26191574 47.42686325 26.26191574 47.42686325 25.78738403 48.52737427 C24.65563819 50.74761771 23.29550129 52.61259089 21.75 54.5625 C19.4375 54.375 19.4375 54.375 16.75 53.5625 C13.59735041 49.15977541 11.63424765 44.0073774 9.484375 39.0625 C9.08671936 38.14919922 8.68906372 37.23589844 8.27935791 36.29492188 C7.44356619 34.36940517 6.60993068 32.44295128 5.77832031 30.515625 C4.50218523 27.56754822 3.20825511 24.62768548 1.9140625 21.6875 C1.10305025 19.81298262 0.29311727 17.93799785 -0.515625 16.0625 C-0.90510315 15.18529297 -1.2945813 14.30808594 -1.69586182 13.40429688 C-2.04662781 12.57994141 -2.3973938 11.75558594 -2.75878906 10.90625 C-3.07172913 10.18630859 -3.38466919 9.46636719 -3.70709229 8.72460938 C-4.38429888 6.02765981 -4.00888858 4.21405375 -3.25 1.5625 C-2.25 0.5625 -2.25 0.5625 0 0 Z " fill="#5B2789" transform="translate(121.25,49.4375)"/>
<path d="M0 0 C3.38194677 1.6440019 5.41970009 3.85574139 7.13574219 7.23950195 C8.18628531 10.5950079 8.25911304 13.46470579 8.265625 16.98046875 C8.26849518 17.96156364 8.26849518 17.96156364 8.27142334 18.96247864 C8.27277777 20.33656197 8.26913338 21.71065842 8.26074219 23.0847168 C8.2499794 25.19153281 8.26068839 27.29750624 8.2734375 29.40429688 C8.27211679 30.74218938 8.26955622 32.08008137 8.265625 33.41796875 C8.26336914 34.63250732 8.26111328 35.8470459 8.25878906 37.09838867 C8 40 8 40 6 42 C3.5 42.25 3.5 42.25 1 42 C-1.7087781 39.2912219 -1.25283792 37.82326137 -1.2734375 34.0390625 C-1.2940625 32.84539062 -1.3146875 31.65171875 -1.3359375 30.421875 C-1.36189809 27.8985052 -1.3801758 25.37504421 -1.390625 22.8515625 C-1.41382813 21.6553125 -1.43703125 20.4590625 -1.4609375 19.2265625 C-1.46915527 18.12908691 -1.47737305 17.03161133 -1.48583984 15.90087891 C-2.11527717 12.34960905 -3.15877088 11.15979875 -6 9 C-10.11463221 8.4747278 -13.38167625 8.93238643 -17 11 C-18.16119918 14.20755609 -18.16619018 17.40405661 -18.24609375 20.7890625 C-18.27896484 21.89507812 -18.31183594 23.00109375 -18.34570312 24.140625 C-18.40710411 26.47124953 -18.46436885 28.80198656 -18.51757812 31.1328125 C-18.55173828 32.23625 -18.58589844 33.3396875 -18.62109375 34.4765625 C-18.6461499 35.48799316 -18.67120605 36.49942383 -18.69702148 37.54150391 C-19 40 -19 40 -21 42 C-23.5 42.3125 -23.5 42.3125 -26 42 C-28.50822042 38.23766937 -28.28865784 35.25861633 -28.265625 30.90234375 C-28.26753845 30.11227432 -28.2694519 29.3222049 -28.27142334 28.50819397 C-28.27278333 26.83968792 -28.26909988 25.17117122 -28.26074219 23.50268555 C-28.25002558 20.9436072 -28.26065082 18.38522858 -28.2734375 15.82617188 C-28.27211615 14.20572761 -28.26955427 12.58528379 -28.265625 10.96484375 C-28.26967346 10.19712143 -28.27372192 9.42939911 -28.27789307 8.63841248 C-28.22993107 3.22993107 -28.22993107 3.22993107 -26 1 C-23.5625 0.625 -23.5625 0.625 -21 1 C-19.1875 3 -19.1875 3 -18 5 C-17.071875 4.175 -16.14375 3.35 -15.1875 2.5 C-10.41940317 -0.8919388 -5.65381683 -1.06434805 0 0 Z " fill="#592488" transform="translate(347,62)"/>
<path d="M0 0 C2 2 2 2 2.125 5.125 C2.08375 6.07375 2.0425 7.0225 2 8 C-4.60766423 9.03649635 -4.60766423 9.03649635 -7.6875 8.75 C-10.1516987 8.80328766 -10.1516987 8.80328766 -12.109375 10.7265625 C-15.04053823 15.80159305 -14.55923508 20.86568327 -14.5625 26.625 C-14.57141992 28.88811151 -14.59296697 31.15121879 -14.62890625 33.4140625 C-14.6299939 34.91380615 -14.6299939 34.91380615 -14.63110352 36.44384766 C-15 39 -15 39 -16.35913086 40.86474609 C-18 42 -18 42 -20.625 41.75 C-23 41 -23 41 -24 40 C-24.10103255 37.20006403 -24.13970088 34.42531356 -24.1328125 31.625 C-24.13376923 30.78533691 -24.13472595 29.94567383 -24.13571167 29.08056641 C-24.13639348 27.30175705 -24.13453917 25.52294523 -24.13037109 23.74414062 C-24.12502283 21.01166224 -24.13031605 18.27934824 -24.13671875 15.546875 C-24.13605797 13.8229163 -24.13477681 12.09895771 -24.1328125 10.375 C-24.13483673 9.55209473 -24.13686096 8.72918945 -24.13894653 7.88134766 C-24.11495054 2.11495054 -24.11495054 2.11495054 -23 1 C-17.58823529 0.52941176 -17.58823529 0.52941176 -15.125 2.5 C-14.75375 2.995 -14.3825 3.49 -14 4 C-13.175 3.34 -12.35 2.68 -11.5 2 C-7.60332639 -0.616338 -4.60564231 -0.46056423 0 0 Z " fill="#5B2689" transform="translate(243,62)"/>
<path d="M0 0 C3.90209164 0.92334746 5.69749115 2.64898086 8.41015625 5.5703125 C10.13951733 9.02903466 9.76095017 12.78173821 9.41015625 16.5703125 C8.15481548 20.1381231 7.08314617 21.993464 4.22265625 24.4453125 C0.54263933 25.91731927 -2.72573846 26.39294429 -6.58984375 25.5703125 C-10.11059326 23.5898909 -12.28888266 21.47319577 -13.58984375 17.5703125 C-14.31370138 12.32921672 -14.40931375 7.85458095 -11.21484375 3.4453125 C-7.81813806 0.04860681 -4.68219027 -0.32485785 0 0 Z " fill="#FCFBFD" transform="translate(191.58984375,70.4296875)"/>
<path d="M0 0 C3.41043584 2.42471915 5.60470385 5.11499275 6.47265625 9.25390625 C6.69960314 15.08545466 5.23705735 19.41877998 1.375 23.875 C-2.44426275 25.68412446 -5.8797831 25.95355624 -10 25 C-13.01767653 23.19308167 -14.57973006 21.20498652 -16 18 C-16.93621716 12.498817 -17.00750573 7.79911738 -14.25 2.875 C-9.65676096 -0.9526992 -5.90006417 -2.09101891 0 0 Z " fill="#FBFAFC" transform="translate(294,71)"/>
<path d="M0 0 C-2 2 -2 2 -3.75 2.8125 C-6.24564828 4.02525519 -6.24564828 4.02525519 -8.9375 6.5 C-12 9 -12 9 -14.20703125 9.73046875 C-18.41103525 11.64137966 -21.40731229 14.67269218 -24.75 17.8125 C-25.43449219 18.42931641 -26.11898437 19.04613281 -26.82421875 19.68164062 C-27.47519531 20.28814453 -28.12617187 20.89464844 -28.796875 21.51953125 C-29.38823242 22.06714111 -29.97958984 22.61475098 -30.58886719 23.17895508 C-32.32052996 25.41363892 -32.55619307 27.23912762 -33 30 C-33.98560611 31.34400833 -34.98758315 32.67607028 -36 34 C-36.495 35.155 -36.99 36.31 -37.5 37.5 C-39 41 -39 41 -40.578125 42.8203125 C-42.50796763 45.77869764 -42.33165192 47.87213256 -42.25 51.375 C-42.23453125 52.47585937 -42.2190625 53.57671875 -42.203125 54.7109375 C-42.0079852 57.87070125 -41.58244582 60.89049086 -41 64 C-43 63 -43 63 -44.13671875 60.94140625 C-45.2370169 57.19242658 -45.09572963 53.78298591 -44.8125 49.9375 C-44.73467285 48.8091272 -44.73467285 48.8091272 -44.65527344 47.65795898 C-43.43664895 32.3713901 -38.61735242 19.41245673 -27 9 C-18.89890543 3.45530271 -9.92299217 -0.63338248 0 0 Z " fill="#6E2EA1" transform="translate(71,65)"/>
<path d="M0 0 C2.5 0.25 2.5 0.25 4.5 2.25 C4.71202418 4.9395974 4.80397614 7.52363723 4.80078125 10.21484375 C4.80506638 11.00395645 4.8093515 11.79306915 4.81376648 12.60609436 C4.81951363 14.27636759 4.82000721 15.94666586 4.81567383 17.61694336 C4.81251655 20.17409972 4.83595751 22.7300964 4.86132812 25.28710938 C4.86360134 26.9088527 4.86430451 28.53059915 4.86328125 30.15234375 C4.872491 30.91804184 4.88170074 31.68373993 4.89118958 32.47264099 C4.84527544 37.73621278 4.84527544 37.73621278 3.14135742 40.27172852 C1.5 41.25 1.5 41.25 -1.125 41 C-3.5 40.25 -3.5 40.25 -4.5 39.25 C-4.61340974 36.53445608 -4.6641802 33.84529957 -4.66796875 31.12890625 C-4.67129715 30.31381088 -4.67462555 29.49871552 -4.67805481 28.65892029 C-4.68312742 26.93139207 -4.68546303 25.20385402 -4.68530273 23.47631836 C-4.68748792 20.82714755 -4.70563621 18.17839384 -4.72460938 15.52929688 C-4.72754344 13.8541681 -4.72952815 12.17903733 -4.73046875 10.50390625 C-4.73765427 9.70803604 -4.74483978 8.91216583 -4.75224304 8.09217834 C-4.72044934 0.47204493 -4.72044934 0.47204493 0 0 Z " fill="#572286" transform="translate(256.5,62.75)"/>
<path d="M0 0 C0.05406122 1.93719378 0.09282025 3.87481921 0.125 5.8125 C0.14820313 6.89144531 0.17140625 7.97039062 0.1953125 9.08203125 C0 12 0 12 -2 15 C-5.625 15.1875 -5.625 15.1875 -9 15 C-9 14.34 -9 13.68 -9 13 C-7.02 13 -5.04 13 -3 13 C-3 12.34 -3 11.68 -3 11 C-3.763125 11.061875 -4.52625 11.12375 -5.3125 11.1875 C-8 11 -8 11 -9.8125 9.8125 C-11.42525784 7.35092224 -11.4334014 5.88934264 -11 3 C-8.63169142 -1.2925593 -4.30785219 -0.21186158 0 0 Z " fill="#FB96A6" transform="translate(251,111)"/>
<path d="M0 0 C0.66 0 1.32 0 2 0 C0.94890403 2.97810526 -0.21233975 5.31187401 -2 7.9375 C-3.96233543 10.94232612 -4.91992151 13.6054676 -6 17 C-6.66 17.66 -7.32 18.32 -8 19 C-8.28273257 21.9237186 -8.28273257 21.9237186 -8.1875 25.25 C-8.18105469 26.36890625 -8.17460937 27.4878125 -8.16796875 28.640625 C-8.00819818 31.83603635 -7.59481353 34.85938455 -7 38 C-9 37 -9 37 -10.14453125 34.96875 C-11.28529026 31.0099516 -11.0145703 27.57255274 -10.6875 23.5 C-10.63916016 22.75363281 -10.59082031 22.00726563 -10.54101562 21.23828125 C-9.95253439 12.82076482 -9.95253439 12.82076482 -9 10 C-7.1015625 8.9453125 -7.1015625 8.9453125 -5 8 C-3.53624439 6.06892051 -3.53624439 6.06892051 -2.375 3.875 C-1.1484375 1.6796875 -1.1484375 1.6796875 0 0 Z " fill="#7935AE" transform="translate(37,91)"/>
<path d="M0 0 C2 2 2 2 2.25 5 C2 8 2 8 0 10 C-3.625 9.625 -3.625 9.625 -7 9 C-7 6.36 -7 3.72 -7 1 C-4.48718205 -0.25640898 -2.78302919 -0.20872719 0 0 Z " fill="#63318E" transform="translate(259,48)"/>
<path d="M0 0 C-5.85533656 5.97991819 -5.85533656 5.97991819 -10.5625 6.0625 C-11.696875 6.041875 -12.83125 6.02125 -14 6 C-16.34176612 7.43910297 -18.01442187 9.06285061 -20 11 C-20 8 -20 8 -18 5 C-18.33 4.34 -18.66 3.68 -19 3 C-16.21019334 2.30404181 -13.41859396 1.61793326 -10.625 0.9375 C-9.43390625 0.63875977 -9.43390625 0.63875977 -8.21875 0.33398438 C-2.2265625 -1.11328125 -2.2265625 -1.11328125 0 0 Z " fill="#7634A7" transform="translate(103,59)"/>
<path d="M0 0 C2.625 0.375 2.625 0.375 5 1 C5.6875 3.3125 5.6875 3.3125 6 6 C4.8125 7.875 4.8125 7.875 3 9 C0.86254078 8.74853421 -0.45925779 8.54074221 -2 7 C-2.1875 4.5625 -2.1875 4.5625 -2 2 C-1.34 1.34 -0.68 0.68 0 0 Z " fill="#FEF8F9" transform="translate(244,112)"/>
<path d="M0 0 C0.66 0 1.32 0 2 0 C2.33 1.65 2.66 3.3 3 5 C3.804375 5.144375 4.60875 5.28875 5.4375 5.4375 C8 6 8 6 9 7 C9.07179964 8.51928038 9.08392007 10.04167482 9.0625 11.5625 C9.05347656 12.38878906 9.04445313 13.21507813 9.03515625 14.06640625 C9.02355469 14.70449219 9.01195312 15.34257813 9 16 C8.67 16 8.34 16 8 16 C7.67 13.36 7.34 10.72 7 8 C5.35 7.67 3.7 7.34 2 7 C2 9.97 2 12.94 2 16 C1.34 16 0.68 16 0 16 C0 10.72 0 5.44 0 0 Z " fill="#FC9DAC" transform="translate(254,106)"/>
<path d="M0 0 C-3.23359313 2.77165126 -6.03094338 4.51160377 -10 6 C-11.6829392 6.97236487 -13.35443434 7.96564444 -15 9 C-13.125 3.25 -13.125 3.25 -12 1 C-8.01624339 -0.17169312 -4.12560776 -0.08089427 0 0 Z " fill="#7131A4" transform="translate(84,63)"/>
<path d="M0 0 C0 1.98 0 3.96 0 6 C-3.465 7.485 -3.465 7.485 -7 9 C-7.66 8.01 -8.32 7.02 -9 6 C-1.92307692 0 -1.92307692 0 0 0 Z " fill="#7435AD" transform="translate(111,54)"/>
<path d="M0 0 C-1.59887554 1.48488441 -3.20428905 2.96273145 -4.8125 4.4375 C-5.70582031 5.26121094 -6.59914063 6.08492188 -7.51953125 6.93359375 C-10 9 -10 9 -13 10 C-12.1875 7.5625 -12.1875 7.5625 -11 5 C-10.01 4.67 -9.02 4.34 -8 4 C-7.67 3.01 -7.34 2.02 -7 1 C-2.55696203 -1.27848101 -2.55696203 -1.27848101 0 0 Z " fill="#7634B2" transform="translate(51,79)"/>
<path d="M0 0 C0.33 0 0.66 0 1 0 C1.06058594 1.15757813 1.12117188 2.31515625 1.18359375 3.5078125 C1.26805502 5.04688457 1.35270018 6.58594655 1.4375 8.125 C1.47681641 8.88554688 1.51613281 9.64609375 1.55664062 10.4296875 C1.79509002 14.68509203 2.20230237 18.80370826 3 23 C1 22 1 22 -0.1484375 19.98828125 C-1.3047251 15.93066652 -0.97447014 12.35667874 -0.625 8.1875 C-0.56828125 7.39923828 -0.5115625 6.61097656 -0.453125 5.79882812 C-0.31249026 3.86510039 -0.15766112 1.93241405 0 0 Z " fill="#A73B99" transform="translate(27,106)"/>
<path d="M0 0 C1.9375 0.1875 1.9375 0.1875 4 1 C5.25 3.0625 5.25 3.0625 6 5 C3.36 5 0.72 5 -2 5 C-1.125 1.125 -1.125 1.125 0 0 Z " fill="#FDD2D9" transform="translate(227,112)"/>
<path d="M0 0 C2.31 0 4.62 0 7 0 C6.0409375 0.495 6.0409375 0.495 5.0625 1 C1.9447236 4.02329832 2.27956936 6.73656724 2 11 C1.34 11 0.68 11 0 11 C0 7.37 0 3.74 0 0 Z " fill="#FCA5B4" transform="translate(216,111)"/>
<path d="M0 0 C0.33 0.66 0.66 1.32 1 2 C0.00390625 3.9453125 0.00390625 3.9453125 -1.4375 6.125 C-1.91058594 6.84945312 -2.38367188 7.57390625 -2.87109375 8.3203125 C-3.24363281 8.87460938 -3.61617187 9.42890625 -4 10 C-5.09375 6.265625 -5.09375 6.265625 -4.25 3.875 C-3 2 -3 2 0 0 Z " fill="#762F9C" transform="translate(34,90)"/>
<path d="M0 0 C-0.598125 0.268125 -1.19625 0.53625 -1.8125 0.8125 C-3.97224808 1.98493467 -5.35790256 3.19369282 -7 5 C-7.66 4.67 -8.32 4.34 -9 4 C-9 3.01 -9 2.02 -9 1 C-5.57367167 -0.61798838 -3.61944899 -1.34053666 0 0 Z " fill="#773198" transform="translate(61,68)"/>
<path d="M0 0 C0.33 0.99 0.66 1.98 1 3 C1.99 3.33 2.98 3.66 4 4 C3.01 4 2.02 4 1 4 C1.144375 5.27875 1.28875 6.5575 1.4375 7.875 C1.51871094 8.59429687 1.59992188 9.31359375 1.68359375 10.0546875 C1.91292961 12.07404316 1.91292961 12.07404316 3 14 C2.01 13.67 1.02 13.34 0 13 C0 10.03 0 7.06 0 4 C-0.66 3.67 -1.32 3.34 -2 3 C-1.34 3 -0.68 3 0 3 C0 2.01 0 1.02 0 0 Z " fill="#FB8497" transform="translate(267,108)"/>
<path d="M0 0 C0.99 0 1.98 0 3 0 C2.6875 2.375 2.6875 2.375 2 5 C1.01 5.66 0.02 6.32 -1 7 C-0.67 4.69 -0.34 2.38 0 0 Z " fill="#7030A7" transform="translate(29,103)"/>
</svg>
